# xmcd
#
# Track frame offsets: 
#        182
#        20397
#        37712
#        54210
#        70652
#        87450
#        98520
#        109937
#        125397
#        138752
#        152305
#        167875
#        181325
#        197355
#        210532
#        225392
#        250120
#        266167
#
# Disc length: 3776 seconds
#
# Revision: 3
# Processed by: cddbd v1.5.2PL0 Copyright (c) Steve Scherf et al.
# Submitted via: ExactAudioCopy v0.95b4
#
DISCID=d80ebe12
DTITLE=Andrew Lloyd Webber - Timeless Favourites (2) - Romantic Souven
DTITLE=irs
DYEAR=1900
DGENRE=Broadway
TTITLE0=Memory (Cats)
TTITLE1=All I Ask Of You (The Phantom of the Opera)
TTITLE2=Love Changes Everything (Aspects of Love)
TTITLE3=With One Look (Sunset Boulevard)
TTITLE4=Tell Me On A Sunday (Song and Dance)
TTITLE5=Chanson D'Enface (Aspects of Love)
TTITLE6=There Is More To Love (Aspects of Love)
TTITLE7=Unexpected Song (Song and Dance)
TTITLE8=Anything But Lonely (Aspects of Love)
TTITLE9=Another Suitcase In Another Hall (Evita)
TTITLE10=Half A Moment (Jeeves)
TTITLE11=Wishing You Were Somehow Here Again (Phantom of the Opera)
TTITLE12=The Last Man In My Life (Song and Dance)
TTITLE13=On This Night Of A Thousand Stars (Evita)
TTITLE14=I'd Be Surprisingly Good For You (Evita)
TTITLE15=The Music Of The Night (Phantom of the Opera)
TTITLE16=Think Of Me (Phantom of the Opera)
TTITLE17=Come Back With The Same Look In Your Eyes (Song and Dance)
EXTD=Readers' Digest Collection
EXTT0=
EXTT1=
EXTT2=
EXTT3=
EXTT4=
EXTT5=
EXTT6=
EXTT7=
EXTT8=
EXTT9=
EXTT10=
EXTT11=
EXTT12=
EXTT13=
EXTT14=
EXTT15=
EXTT16=
EXTT17=
PLAYORDER=
